{"accessors" : [{"bufferView" : 0, "byteOffset" : 0, "componentType" : 5123, "count" : 30552, "type" : "SCALAR", "max" : [22978], "min" : [0]}, {"bufferView" : 1, "byteOffset" : 0, "componentType" : 5126, "count" : 22979, "type" : "VEC3", "max" : [267.538818359375, 167.93112182617188, 227.9429931640625], "min" : [-130.78575134277344, -334.82305908203125, -227.94297790527344], "name" : "POSITION"}, {"bufferView" : 1, "byteOffset" : 12, "componentType" : 5126, "count" : 22979, "type" : "VEC2", "max" : [0.9984987378120422, -0.15610915422439575], "min" : [0.0004996061325073242, -0.9988694787025452], "name" : "TEXCOORD_0"}, {"bufferView" : 0, "byteOffset" : 61104, "componentType" : 5123, "count" : 5760, "type" : "SCALAR", "max" : [4771], "min" : [0]}, {"bufferView" : 2, "byteOffset" : 0, "componentType" : 5126, "count" : 4772, "type" : "VEC3", "max" : [66.26133728027344, 142.50010681152344, 88.22813415527344], "min" : [-35.52987289428711, 45.33195114135742, -88.22814178466797], "name" : "POSITION"}, {"bufferView" : 2, "byteOffset" : 12, "componentType" : 5126, "count" : 4772, "type" : "VEC2", "max" : [0.9331721067428589, 0.029072105884552002], "min" : [0.08695146441459656, -0.8476355075836182], "name" : "TEXCOORD_0"}], "asset" : {"generator" : "Aspose.3D 23.2", "version" : "2.0"}, "buffers" : [{"uri" : "data:application/octet-stream;base64,", "byteLength" : 798876}], "bufferViews" : [{"buffer" : 0, "byteOffset" : 0, "byteLength" : 72624, "target" : 34963}, {"buffer" : 0, "byteOffset" : 72628, "byteLength" : 611040, "byteStride" : 20, "target" : 34962}, {"buffer" : 0, "byteOffset" : 683672, "byteLength" : 115200, "byteStride" : 20, "target" : 34962}], "images" : [{"uri" : "DUCK.JPG"}, {"uri" : "EYE.JPG"}], "materials" : [{"name" : "duck", "pbrMetallicRoughness" : {"baseColorFactor" : [0.5882352941176471, 0.5882352941176471, 0.5882352941176471, 1], "baseColorTexture" : {"index" : 0, "texCoord" : 0}, "metallicFactor" : 0, "roughnessFactor" : 0}, "emissiveFactor" : [0, 0, 0], "alphaMode" : "OPAQUE", "doubleSided" : false}, {"name" : "eye", "pbrMetallicRoughness" : {"baseColorFactor" : [0.5843137254901961, 0.5843137254901961, 0.5843137254901961, 1], "baseColorTexture" : {"index" : 1, "texCoord" : 0}, "metallicFactor" : 0, "roughnessFactor" : 0}, "emissiveFactor" : [0, 0, 0], "alphaMode" : "OPAQUE", "doubleSided" : false}], "meshes" : [{"primitives" : [{"attributes" : {"POSITION" : 1, "TEXCOORD_0" : 2}, "indices" : 0, "material" : 0, "mode" : 4}, {"attributes" : {"POSITION" : 4, "TEXCOORD_0" : 5}, "indices" : 3, "material" : 1, "mode" : 4}], "name" : "Corps"}], "nodes" : [{"matrix" : [8.502672343979611E-09, 0, 0.19451846182346344, 0, -8.502672343979611E-09, 0.19451846182346344, 3.7166360475552446E-16, 0, -0.19451846182346344, -8.502672343979611E-09, 8.502672343979611E-09, 0, 9.081626899387629E-07, 65.02850341796875, -9.25912094116211, 1], "mesh" : 0, "name" : "Corps"}], "samplers" : [{"magFilter" : 9729, "minFilter" : 9729, "wrapS" : 10497, "wrapT" : 10497}, {"magFilter" : 9729, "minFilter" : 9729, "wrapS" : 10497, "wrapT" : 10497}], "scene" : 0, "scenes" : [{"nodes" : [0]}], "textures" : [{"sampler" : 0, "source" : 0, "name" : ""}, {"sampler" : 1, "source" : 1, "name" : ""}]}